<mxfile host="app.diagrams.net" modified="2023-02-04T22:25:35.403Z" agent="5.0 (Macintosh; Intel Mac OS X 10_15_7) AppleWebKit/537.36 (KHTML, like Gecko) Chrome/109.0.0.0 Safari/537.36" etag="uQzEfTiv47l19jc7cbjW" version="20.8.16" type="github">
  <diagram name="Page-1" id="ad52d381-51e7-2e0d-a935-2d0ddd2fd229">
    <mxGraphModel dx="1889" dy="2628" grid="1" gridSize="10" guides="1" tooltips="1" connect="1" arrows="1" fold="1" page="1" pageScale="1" pageWidth="1100" pageHeight="850" background="none" math="0" shadow="0">
      <root>
        <mxCell id="0" />
        <mxCell id="1" parent="0" />
        <mxCell id="0ddX7cNOxqU3FVXwz0oG-7" style="edgeStyle=orthogonalEdgeStyle;rounded=0;orthogonalLoop=1;jettySize=auto;html=1;entryX=0;entryY=0.5;entryDx=0;entryDy=0;labelBackgroundColor=none;fontColor=default;" edge="1" parent="1" source="0ddX7cNOxqU3FVXwz0oG-21" target="0ddX7cNOxqU3FVXwz0oG-3">
          <mxGeometry relative="1" as="geometry">
            <mxPoint x="310" y="340" as="sourcePoint" />
          </mxGeometry>
        </mxCell>
        <mxCell id="0ddX7cNOxqU3FVXwz0oG-8" style="edgeStyle=orthogonalEdgeStyle;rounded=0;orthogonalLoop=1;jettySize=auto;html=1;exitX=1;exitY=1;exitDx=0;exitDy=0;entryX=0;entryY=0.5;entryDx=0;entryDy=0;labelBackgroundColor=none;fontColor=default;" edge="1" parent="1" source="0ddX7cNOxqU3FVXwz0oG-21" target="0ddX7cNOxqU3FVXwz0oG-4">
          <mxGeometry relative="1" as="geometry">
            <mxPoint x="250" y="380" as="sourcePoint" />
            <Array as="points">
              <mxPoint x="315" y="470" />
              <mxPoint x="315" y="1570" />
            </Array>
          </mxGeometry>
        </mxCell>
        <mxCell id="0ddX7cNOxqU3FVXwz0oG-16" style="edgeStyle=orthogonalEdgeStyle;rounded=0;orthogonalLoop=1;jettySize=auto;html=1;entryX=0;entryY=0.5;entryDx=0;entryDy=0;labelBackgroundColor=none;fontColor=default;" edge="1" parent="1" source="0ddX7cNOxqU3FVXwz0oG-2" target="0ddX7cNOxqU3FVXwz0oG-14">
          <mxGeometry relative="1" as="geometry" />
        </mxCell>
        <mxCell id="0ddX7cNOxqU3FVXwz0oG-17" style="edgeStyle=orthogonalEdgeStyle;rounded=0;orthogonalLoop=1;jettySize=auto;html=1;entryX=0;entryY=0.5;entryDx=0;entryDy=0;labelBackgroundColor=none;fontColor=default;" edge="1" parent="1" source="0ddX7cNOxqU3FVXwz0oG-2" target="0ddX7cNOxqU3FVXwz0oG-13">
          <mxGeometry relative="1" as="geometry" />
        </mxCell>
        <mxCell id="0ddX7cNOxqU3FVXwz0oG-19" style="edgeStyle=orthogonalEdgeStyle;rounded=0;orthogonalLoop=1;jettySize=auto;html=1;entryX=0;entryY=0.5;entryDx=0;entryDy=0;labelBackgroundColor=none;fontColor=default;" edge="1" parent="1" source="0ddX7cNOxqU3FVXwz0oG-2" target="0ddX7cNOxqU3FVXwz0oG-18">
          <mxGeometry relative="1" as="geometry">
            <Array as="points">
              <mxPoint x="450" y="10" />
            </Array>
          </mxGeometry>
        </mxCell>
        <mxCell id="0ddX7cNOxqU3FVXwz0oG-48" style="edgeStyle=orthogonalEdgeStyle;rounded=0;orthogonalLoop=1;jettySize=auto;html=1;entryX=0;entryY=0.5;entryDx=0;entryDy=0;" edge="1" parent="1" source="0ddX7cNOxqU3FVXwz0oG-2" target="0ddX7cNOxqU3FVXwz0oG-47">
          <mxGeometry relative="1" as="geometry">
            <Array as="points">
              <mxPoint x="460" y="210" />
            </Array>
          </mxGeometry>
        </mxCell>
        <mxCell id="0ddX7cNOxqU3FVXwz0oG-2" value="Верхний блок" style="rounded=1;whiteSpace=wrap;html=1;labelBackgroundColor=none;" vertex="1" parent="1">
          <mxGeometry x="380" y="90" width="120" height="60" as="geometry" />
        </mxCell>
        <mxCell id="0ddX7cNOxqU3FVXwz0oG-55" style="edgeStyle=orthogonalEdgeStyle;rounded=0;orthogonalLoop=1;jettySize=auto;html=1;entryX=0;entryY=0.5;entryDx=0;entryDy=0;" edge="1" parent="1" source="0ddX7cNOxqU3FVXwz0oG-3" target="0ddX7cNOxqU3FVXwz0oG-53">
          <mxGeometry relative="1" as="geometry" />
        </mxCell>
        <mxCell id="0ddX7cNOxqU3FVXwz0oG-56" style="edgeStyle=orthogonalEdgeStyle;rounded=0;orthogonalLoop=1;jettySize=auto;html=1;entryX=0;entryY=0.5;entryDx=0;entryDy=0;" edge="1" parent="1" source="0ddX7cNOxqU3FVXwz0oG-3" target="0ddX7cNOxqU3FVXwz0oG-54">
          <mxGeometry relative="1" as="geometry" />
        </mxCell>
        <mxCell id="0ddX7cNOxqU3FVXwz0oG-64" style="edgeStyle=orthogonalEdgeStyle;rounded=0;orthogonalLoop=1;jettySize=auto;html=1;entryX=0;entryY=0.5;entryDx=0;entryDy=0;" edge="1" parent="1" source="0ddX7cNOxqU3FVXwz0oG-3" target="0ddX7cNOxqU3FVXwz0oG-63">
          <mxGeometry relative="1" as="geometry" />
        </mxCell>
        <mxCell id="0ddX7cNOxqU3FVXwz0oG-3" value="Форма предзаказа" style="rounded=1;whiteSpace=wrap;html=1;labelBackgroundColor=none;" vertex="1" parent="1">
          <mxGeometry x="380" y="310" width="120" height="60" as="geometry" />
        </mxCell>
        <mxCell id="0ddX7cNOxqU3FVXwz0oG-165" style="edgeStyle=orthogonalEdgeStyle;rounded=0;orthogonalLoop=1;jettySize=auto;html=1;entryX=0;entryY=0.5;entryDx=0;entryDy=0;fontSize=10;" edge="1" parent="1" source="0ddX7cNOxqU3FVXwz0oG-4" target="0ddX7cNOxqU3FVXwz0oG-160">
          <mxGeometry relative="1" as="geometry" />
        </mxCell>
        <mxCell id="0ddX7cNOxqU3FVXwz0oG-166" style="edgeStyle=orthogonalEdgeStyle;rounded=0;orthogonalLoop=1;jettySize=auto;html=1;entryX=0;entryY=0.5;entryDx=0;entryDy=0;fontSize=10;" edge="1" parent="1" source="0ddX7cNOxqU3FVXwz0oG-4" target="0ddX7cNOxqU3FVXwz0oG-161">
          <mxGeometry relative="1" as="geometry" />
        </mxCell>
        <mxCell id="0ddX7cNOxqU3FVXwz0oG-167" style="edgeStyle=orthogonalEdgeStyle;rounded=0;orthogonalLoop=1;jettySize=auto;html=1;entryX=0;entryY=0.5;entryDx=0;entryDy=0;fontSize=10;" edge="1" parent="1" source="0ddX7cNOxqU3FVXwz0oG-4" target="0ddX7cNOxqU3FVXwz0oG-162">
          <mxGeometry relative="1" as="geometry" />
        </mxCell>
        <mxCell id="0ddX7cNOxqU3FVXwz0oG-168" style="edgeStyle=orthogonalEdgeStyle;rounded=0;orthogonalLoop=1;jettySize=auto;html=1;entryX=0;entryY=0.5;entryDx=0;entryDy=0;fontSize=10;" edge="1" parent="1" source="0ddX7cNOxqU3FVXwz0oG-4" target="0ddX7cNOxqU3FVXwz0oG-163">
          <mxGeometry relative="1" as="geometry" />
        </mxCell>
        <mxCell id="0ddX7cNOxqU3FVXwz0oG-4" value="Нижний блок" style="rounded=1;whiteSpace=wrap;html=1;labelBackgroundColor=none;" vertex="1" parent="1">
          <mxGeometry x="380" y="1540" width="120" height="60" as="geometry" />
        </mxCell>
        <mxCell id="0ddX7cNOxqU3FVXwz0oG-12" style="edgeStyle=orthogonalEdgeStyle;rounded=0;orthogonalLoop=1;jettySize=auto;html=1;entryX=0;entryY=0.5;entryDx=0;entryDy=0;labelBackgroundColor=none;fontColor=default;exitX=0.5;exitY=0;exitDx=0;exitDy=0;" edge="1" parent="1" source="0ddX7cNOxqU3FVXwz0oG-21" target="0ddX7cNOxqU3FVXwz0oG-2">
          <mxGeometry relative="1" as="geometry">
            <mxPoint x="250" y="300" as="sourcePoint" />
            <Array as="points">
              <mxPoint x="63" y="180" />
              <mxPoint x="250" y="180" />
              <mxPoint x="250" y="120" />
            </Array>
          </mxGeometry>
        </mxCell>
        <mxCell id="0ddX7cNOxqU3FVXwz0oG-37" style="edgeStyle=orthogonalEdgeStyle;rounded=0;orthogonalLoop=1;jettySize=auto;html=1;entryX=0;entryY=0.5;entryDx=0;entryDy=0;" edge="1" parent="1" source="0ddX7cNOxqU3FVXwz0oG-13" target="0ddX7cNOxqU3FVXwz0oG-32">
          <mxGeometry relative="1" as="geometry">
            <Array as="points">
              <mxPoint x="620" y="50" />
            </Array>
          </mxGeometry>
        </mxCell>
        <mxCell id="0ddX7cNOxqU3FVXwz0oG-38" style="edgeStyle=orthogonalEdgeStyle;rounded=0;orthogonalLoop=1;jettySize=auto;html=1;exitX=1;exitY=0.5;exitDx=0;exitDy=0;entryX=0;entryY=0.5;entryDx=0;entryDy=0;" edge="1" parent="1" source="0ddX7cNOxqU3FVXwz0oG-13" target="0ddX7cNOxqU3FVXwz0oG-33">
          <mxGeometry relative="1" as="geometry" />
        </mxCell>
        <mxCell id="0ddX7cNOxqU3FVXwz0oG-40" style="edgeStyle=orthogonalEdgeStyle;rounded=0;orthogonalLoop=1;jettySize=auto;html=1;entryX=0;entryY=0.5;entryDx=0;entryDy=0;" edge="1" parent="1" source="0ddX7cNOxqU3FVXwz0oG-13" target="0ddX7cNOxqU3FVXwz0oG-34">
          <mxGeometry relative="1" as="geometry">
            <Array as="points">
              <mxPoint x="620" y="90" />
            </Array>
          </mxGeometry>
        </mxCell>
        <mxCell id="0ddX7cNOxqU3FVXwz0oG-41" style="edgeStyle=orthogonalEdgeStyle;rounded=0;orthogonalLoop=1;jettySize=auto;html=1;entryX=0;entryY=0.5;entryDx=0;entryDy=0;" edge="1" parent="1" source="0ddX7cNOxqU3FVXwz0oG-13" target="0ddX7cNOxqU3FVXwz0oG-35">
          <mxGeometry relative="1" as="geometry">
            <mxPoint x="650" y="110" as="targetPoint" />
            <Array as="points">
              <mxPoint x="620" y="110" />
            </Array>
          </mxGeometry>
        </mxCell>
        <mxCell id="0ddX7cNOxqU3FVXwz0oG-13" value="Таймер" style="rounded=1;whiteSpace=wrap;html=1;labelBackgroundColor=none;" vertex="1" parent="1">
          <mxGeometry x="560" y="60" width="120" height="20" as="geometry" />
        </mxCell>
        <mxCell id="0ddX7cNOxqU3FVXwz0oG-27" style="edgeStyle=orthogonalEdgeStyle;rounded=0;orthogonalLoop=1;jettySize=auto;html=1;entryX=0;entryY=0.5;entryDx=0;entryDy=0;" edge="1" parent="1" source="0ddX7cNOxqU3FVXwz0oG-14" target="0ddX7cNOxqU3FVXwz0oG-26">
          <mxGeometry relative="1" as="geometry" />
        </mxCell>
        <mxCell id="0ddX7cNOxqU3FVXwz0oG-28" style="edgeStyle=orthogonalEdgeStyle;rounded=0;orthogonalLoop=1;jettySize=auto;html=1;entryX=0;entryY=0.5;entryDx=0;entryDy=0;" edge="1" parent="1" source="0ddX7cNOxqU3FVXwz0oG-14" target="0ddX7cNOxqU3FVXwz0oG-25">
          <mxGeometry relative="1" as="geometry" />
        </mxCell>
        <mxCell id="0ddX7cNOxqU3FVXwz0oG-14" value="Кнопки под таймером" style="rounded=1;whiteSpace=wrap;html=1;labelBackgroundColor=none;" vertex="1" parent="1">
          <mxGeometry x="555" y="130" width="120" height="40" as="geometry" />
        </mxCell>
        <mxCell id="0ddX7cNOxqU3FVXwz0oG-44" style="edgeStyle=orthogonalEdgeStyle;rounded=0;orthogonalLoop=1;jettySize=auto;html=1;entryX=0;entryY=0.5;entryDx=0;entryDy=0;" edge="1" parent="1" source="0ddX7cNOxqU3FVXwz0oG-18" target="0ddX7cNOxqU3FVXwz0oG-42">
          <mxGeometry relative="1" as="geometry">
            <Array as="points">
              <mxPoint x="650" y="-25" />
            </Array>
          </mxGeometry>
        </mxCell>
        <mxCell id="0ddX7cNOxqU3FVXwz0oG-46" style="edgeStyle=orthogonalEdgeStyle;rounded=0;orthogonalLoop=1;jettySize=auto;html=1;entryX=0;entryY=0.5;entryDx=0;entryDy=0;" edge="1" parent="1" source="0ddX7cNOxqU3FVXwz0oG-18" target="0ddX7cNOxqU3FVXwz0oG-45">
          <mxGeometry relative="1" as="geometry" />
        </mxCell>
        <mxCell id="0ddX7cNOxqU3FVXwz0oG-18" value="Текст над таймером" style="rounded=1;whiteSpace=wrap;html=1;labelBackgroundColor=none;" vertex="1" parent="1">
          <mxGeometry x="560" width="120" height="20" as="geometry" />
        </mxCell>
        <mxCell id="0ddX7cNOxqU3FVXwz0oG-21" value="Промо-страница Яндекс.Самокат" style="ellipse;whiteSpace=wrap;html=1;aspect=fixed;labelBackgroundColor=none;" vertex="1" parent="1">
          <mxGeometry y="363" width="125" height="125" as="geometry" />
        </mxCell>
        <mxCell id="0ddX7cNOxqU3FVXwz0oG-25" value="Кнопка &quot;Предзаказ&quot;" style="rounded=1;whiteSpace=wrap;html=1;labelBackgroundColor=none;" vertex="1" parent="1">
          <mxGeometry x="710" y="130" width="120" height="20" as="geometry" />
        </mxCell>
        <mxCell id="0ddX7cNOxqU3FVXwz0oG-26" value="Кнопка &quot;Подробнее&quot;" style="rounded=1;whiteSpace=wrap;html=1;labelBackgroundColor=none;" vertex="1" parent="1">
          <mxGeometry x="710" y="150" width="120" height="20" as="geometry" />
        </mxCell>
        <mxCell id="0ddX7cNOxqU3FVXwz0oG-32" value="Блок с кол-вом дней" style="rounded=1;whiteSpace=wrap;html=1;labelBackgroundColor=none;" vertex="1" parent="1">
          <mxGeometry x="700" y="40" width="140" height="20" as="geometry" />
        </mxCell>
        <mxCell id="0ddX7cNOxqU3FVXwz0oG-33" value="Блок с кол-вом часов" style="rounded=1;whiteSpace=wrap;html=1;labelBackgroundColor=none;" vertex="1" parent="1">
          <mxGeometry x="700" y="60" width="140" height="20" as="geometry" />
        </mxCell>
        <mxCell id="0ddX7cNOxqU3FVXwz0oG-34" value="Блок с кол-вом минут" style="rounded=1;whiteSpace=wrap;html=1;labelBackgroundColor=none;" vertex="1" parent="1">
          <mxGeometry x="700" y="80" width="140" height="20" as="geometry" />
        </mxCell>
        <mxCell id="0ddX7cNOxqU3FVXwz0oG-35" value="Блок с кол-вом секунд" style="rounded=1;whiteSpace=wrap;html=1;labelBackgroundColor=none;" vertex="1" parent="1">
          <mxGeometry x="700" y="100" width="140" height="20" as="geometry" />
        </mxCell>
        <mxCell id="0ddX7cNOxqU3FVXwz0oG-42" value="Заголовок Яндекс самокат" style="rounded=1;whiteSpace=wrap;html=1;labelBackgroundColor=none;" vertex="1" parent="1">
          <mxGeometry x="720" y="-30" width="170" height="20" as="geometry" />
        </mxCell>
        <mxCell id="0ddX7cNOxqU3FVXwz0oG-43" style="edgeStyle=orthogonalEdgeStyle;rounded=0;orthogonalLoop=1;jettySize=auto;html=1;exitX=0.5;exitY=1;exitDx=0;exitDy=0;" edge="1" parent="1" source="0ddX7cNOxqU3FVXwz0oG-18" target="0ddX7cNOxqU3FVXwz0oG-18">
          <mxGeometry relative="1" as="geometry" />
        </mxCell>
        <mxCell id="0ddX7cNOxqU3FVXwz0oG-45" value="Текст под заголовком" style="rounded=1;whiteSpace=wrap;html=1;labelBackgroundColor=none;" vertex="1" parent="1">
          <mxGeometry x="720" width="170" height="20" as="geometry" />
        </mxCell>
        <mxCell id="0ddX7cNOxqU3FVXwz0oG-51" style="edgeStyle=orthogonalEdgeStyle;rounded=0;orthogonalLoop=1;jettySize=auto;html=1;entryX=0;entryY=0.5;entryDx=0;entryDy=0;" edge="1" parent="1" source="0ddX7cNOxqU3FVXwz0oG-47" target="0ddX7cNOxqU3FVXwz0oG-49">
          <mxGeometry relative="1" as="geometry" />
        </mxCell>
        <mxCell id="0ddX7cNOxqU3FVXwz0oG-52" style="edgeStyle=orthogonalEdgeStyle;rounded=0;orthogonalLoop=1;jettySize=auto;html=1;entryX=0;entryY=0.75;entryDx=0;entryDy=0;" edge="1" parent="1" source="0ddX7cNOxqU3FVXwz0oG-47" target="0ddX7cNOxqU3FVXwz0oG-50">
          <mxGeometry relative="1" as="geometry" />
        </mxCell>
        <mxCell id="0ddX7cNOxqU3FVXwz0oG-47" value="Блок с описанием функционала самокатов" style="rounded=1;whiteSpace=wrap;html=1;labelBackgroundColor=none;" vertex="1" parent="1">
          <mxGeometry x="560" y="180" width="130" height="60" as="geometry" />
        </mxCell>
        <mxCell id="0ddX7cNOxqU3FVXwz0oG-49" value="Изображение самоката" style="rounded=1;whiteSpace=wrap;html=1;labelBackgroundColor=none;" vertex="1" parent="1">
          <mxGeometry x="720" y="180" width="140" height="20" as="geometry" />
        </mxCell>
        <mxCell id="0ddX7cNOxqU3FVXwz0oG-50" value="Текст с описаием самоката" style="rounded=1;whiteSpace=wrap;html=1;labelBackgroundColor=none;" vertex="1" parent="1">
          <mxGeometry x="720" y="210" width="170" height="20" as="geometry" />
        </mxCell>
        <mxCell id="0ddX7cNOxqU3FVXwz0oG-59" style="edgeStyle=orthogonalEdgeStyle;rounded=0;orthogonalLoop=1;jettySize=auto;html=1;entryX=0;entryY=0.5;entryDx=0;entryDy=0;" edge="1" parent="1" source="0ddX7cNOxqU3FVXwz0oG-53" target="0ddX7cNOxqU3FVXwz0oG-57">
          <mxGeometry relative="1" as="geometry" />
        </mxCell>
        <mxCell id="0ddX7cNOxqU3FVXwz0oG-60" style="edgeStyle=orthogonalEdgeStyle;rounded=0;orthogonalLoop=1;jettySize=auto;html=1;entryX=0;entryY=0.5;entryDx=0;entryDy=0;" edge="1" parent="1" source="0ddX7cNOxqU3FVXwz0oG-53" target="0ddX7cNOxqU3FVXwz0oG-58">
          <mxGeometry relative="1" as="geometry" />
        </mxCell>
        <mxCell id="0ddX7cNOxqU3FVXwz0oG-53" value="Блок со счетчиком кол-ва человек оформивших предзаказ" style="rounded=1;whiteSpace=wrap;html=1;labelBackgroundColor=none;" vertex="1" parent="1">
          <mxGeometry x="560" y="270" width="130" height="60" as="geometry" />
        </mxCell>
        <mxCell id="0ddX7cNOxqU3FVXwz0oG-68" style="edgeStyle=orthogonalEdgeStyle;rounded=0;orthogonalLoop=1;jettySize=auto;html=1;entryX=0;entryY=0.5;entryDx=0;entryDy=0;" edge="1" parent="1" source="0ddX7cNOxqU3FVXwz0oG-54" target="0ddX7cNOxqU3FVXwz0oG-61">
          <mxGeometry relative="1" as="geometry" />
        </mxCell>
        <mxCell id="0ddX7cNOxqU3FVXwz0oG-69" style="edgeStyle=orthogonalEdgeStyle;rounded=0;orthogonalLoop=1;jettySize=auto;html=1;entryX=0;entryY=0.5;entryDx=0;entryDy=0;" edge="1" parent="1" source="0ddX7cNOxqU3FVXwz0oG-54" target="0ddX7cNOxqU3FVXwz0oG-62">
          <mxGeometry relative="1" as="geometry" />
        </mxCell>
        <mxCell id="0ddX7cNOxqU3FVXwz0oG-70" style="edgeStyle=orthogonalEdgeStyle;rounded=0;orthogonalLoop=1;jettySize=auto;html=1;entryX=0;entryY=0.75;entryDx=0;entryDy=0;" edge="1" parent="1" source="0ddX7cNOxqU3FVXwz0oG-54" target="0ddX7cNOxqU3FVXwz0oG-65">
          <mxGeometry relative="1" as="geometry" />
        </mxCell>
        <mxCell id="0ddX7cNOxqU3FVXwz0oG-71" style="edgeStyle=orthogonalEdgeStyle;rounded=0;orthogonalLoop=1;jettySize=auto;html=1;entryX=0;entryY=0.5;entryDx=0;entryDy=0;" edge="1" parent="1" source="0ddX7cNOxqU3FVXwz0oG-54" target="0ddX7cNOxqU3FVXwz0oG-66">
          <mxGeometry relative="1" as="geometry" />
        </mxCell>
        <mxCell id="0ddX7cNOxqU3FVXwz0oG-72" style="edgeStyle=orthogonalEdgeStyle;rounded=0;orthogonalLoop=1;jettySize=auto;html=1;entryX=0;entryY=0.5;entryDx=0;entryDy=0;" edge="1" parent="1" source="0ddX7cNOxqU3FVXwz0oG-54" target="0ddX7cNOxqU3FVXwz0oG-67">
          <mxGeometry relative="1" as="geometry" />
        </mxCell>
        <mxCell id="0ddX7cNOxqU3FVXwz0oG-54" value="Блок с полями ввода" style="rounded=1;whiteSpace=wrap;html=1;labelBackgroundColor=none;" vertex="1" parent="1">
          <mxGeometry x="555" y="420" width="130" height="60" as="geometry" />
        </mxCell>
        <mxCell id="0ddX7cNOxqU3FVXwz0oG-57" value="Заголовок над блоком счетчика" style="rounded=1;whiteSpace=wrap;html=1;labelBackgroundColor=none;" vertex="1" parent="1">
          <mxGeometry x="730" y="250" width="170" height="30" as="geometry" />
        </mxCell>
        <mxCell id="0ddX7cNOxqU3FVXwz0oG-58" value="Счетчик с кол-вом человек" style="rounded=1;whiteSpace=wrap;html=1;labelBackgroundColor=none;" vertex="1" parent="1">
          <mxGeometry x="730" y="290" width="170" height="20" as="geometry" />
        </mxCell>
        <mxCell id="0ddX7cNOxqU3FVXwz0oG-75" style="edgeStyle=orthogonalEdgeStyle;rounded=0;orthogonalLoop=1;jettySize=auto;html=1;fontSize=10;" edge="1" parent="1" source="0ddX7cNOxqU3FVXwz0oG-61" target="0ddX7cNOxqU3FVXwz0oG-73">
          <mxGeometry relative="1" as="geometry" />
        </mxCell>
        <mxCell id="0ddX7cNOxqU3FVXwz0oG-76" style="edgeStyle=orthogonalEdgeStyle;rounded=0;orthogonalLoop=1;jettySize=auto;html=1;fontSize=10;" edge="1" parent="1" source="0ddX7cNOxqU3FVXwz0oG-61" target="0ddX7cNOxqU3FVXwz0oG-74">
          <mxGeometry relative="1" as="geometry" />
        </mxCell>
        <mxCell id="0ddX7cNOxqU3FVXwz0oG-78" style="edgeStyle=orthogonalEdgeStyle;rounded=0;orthogonalLoop=1;jettySize=auto;html=1;fontSize=10;" edge="1" parent="1" source="0ddX7cNOxqU3FVXwz0oG-61" target="0ddX7cNOxqU3FVXwz0oG-77">
          <mxGeometry relative="1" as="geometry" />
        </mxCell>
        <mxCell id="0ddX7cNOxqU3FVXwz0oG-61" value="Поле &quot;Имя&quot;" style="rounded=1;whiteSpace=wrap;html=1;labelBackgroundColor=none;" vertex="1" parent="1">
          <mxGeometry x="730" y="330" width="170" height="20" as="geometry" />
        </mxCell>
        <mxCell id="0ddX7cNOxqU3FVXwz0oG-102" style="edgeStyle=orthogonalEdgeStyle;rounded=0;orthogonalLoop=1;jettySize=auto;html=1;fontSize=10;" edge="1" parent="1" source="0ddX7cNOxqU3FVXwz0oG-62" target="0ddX7cNOxqU3FVXwz0oG-85">
          <mxGeometry relative="1" as="geometry" />
        </mxCell>
        <mxCell id="0ddX7cNOxqU3FVXwz0oG-103" style="edgeStyle=orthogonalEdgeStyle;rounded=0;orthogonalLoop=1;jettySize=auto;html=1;fontSize=10;" edge="1" parent="1" source="0ddX7cNOxqU3FVXwz0oG-62" target="0ddX7cNOxqU3FVXwz0oG-86">
          <mxGeometry relative="1" as="geometry" />
        </mxCell>
        <mxCell id="0ddX7cNOxqU3FVXwz0oG-104" style="edgeStyle=orthogonalEdgeStyle;rounded=0;orthogonalLoop=1;jettySize=auto;html=1;entryX=0.003;entryY=0.544;entryDx=0;entryDy=0;entryPerimeter=0;fontSize=10;" edge="1" parent="1" source="0ddX7cNOxqU3FVXwz0oG-62" target="0ddX7cNOxqU3FVXwz0oG-93">
          <mxGeometry relative="1" as="geometry">
            <Array as="points">
              <mxPoint x="920" y="470" />
              <mxPoint x="920" y="516" />
            </Array>
          </mxGeometry>
        </mxCell>
        <mxCell id="0ddX7cNOxqU3FVXwz0oG-62" value="Поле &quot;Фамилия&quot;" style="rounded=1;whiteSpace=wrap;html=1;labelBackgroundColor=none;" vertex="1" parent="1">
          <mxGeometry x="730" y="460" width="170" height="20" as="geometry" />
        </mxCell>
        <mxCell id="0ddX7cNOxqU3FVXwz0oG-63" value="Кнопка &quot;Заказать&quot;" style="rounded=1;whiteSpace=wrap;html=1;labelBackgroundColor=none;" vertex="1" parent="1">
          <mxGeometry x="560" y="1160" width="130" height="30" as="geometry" />
        </mxCell>
        <mxCell id="0ddX7cNOxqU3FVXwz0oG-65" value="Поле &quot;Отчество&quot;" style="rounded=1;whiteSpace=wrap;html=1;labelBackgroundColor=none;" vertex="1" parent="1">
          <mxGeometry x="730" y="650" width="170" height="20" as="geometry" />
        </mxCell>
        <mxCell id="0ddX7cNOxqU3FVXwz0oG-136" style="edgeStyle=orthogonalEdgeStyle;rounded=0;orthogonalLoop=1;jettySize=auto;html=1;entryX=-0.002;entryY=0.433;entryDx=0;entryDy=0;entryPerimeter=0;fontSize=10;" edge="1" parent="1" source="0ddX7cNOxqU3FVXwz0oG-66" target="0ddX7cNOxqU3FVXwz0oG-124">
          <mxGeometry relative="1" as="geometry" />
        </mxCell>
        <mxCell id="0ddX7cNOxqU3FVXwz0oG-137" style="edgeStyle=orthogonalEdgeStyle;rounded=0;orthogonalLoop=1;jettySize=auto;html=1;entryX=-0.061;entryY=0.589;entryDx=0;entryDy=0;entryPerimeter=0;fontSize=10;" edge="1" parent="1" source="0ddX7cNOxqU3FVXwz0oG-66" target="0ddX7cNOxqU3FVXwz0oG-125">
          <mxGeometry relative="1" as="geometry" />
        </mxCell>
        <mxCell id="0ddX7cNOxqU3FVXwz0oG-138" style="edgeStyle=orthogonalEdgeStyle;rounded=0;orthogonalLoop=1;jettySize=auto;html=1;entryX=-0.02;entryY=0.589;entryDx=0;entryDy=0;entryPerimeter=0;fontSize=10;" edge="1" parent="1" source="0ddX7cNOxqU3FVXwz0oG-66" target="0ddX7cNOxqU3FVXwz0oG-126">
          <mxGeometry relative="1" as="geometry" />
        </mxCell>
        <mxCell id="0ddX7cNOxqU3FVXwz0oG-139" style="edgeStyle=orthogonalEdgeStyle;rounded=0;orthogonalLoop=1;jettySize=auto;html=1;entryX=-0.02;entryY=0.567;entryDx=0;entryDy=0;entryPerimeter=0;fontSize=10;" edge="1" parent="1" source="0ddX7cNOxqU3FVXwz0oG-66" target="0ddX7cNOxqU3FVXwz0oG-127">
          <mxGeometry relative="1" as="geometry" />
        </mxCell>
        <mxCell id="0ddX7cNOxqU3FVXwz0oG-140" style="edgeStyle=orthogonalEdgeStyle;rounded=0;orthogonalLoop=1;jettySize=auto;html=1;entryX=-0.005;entryY=0.522;entryDx=0;entryDy=0;entryPerimeter=0;fontSize=10;" edge="1" parent="1" source="0ddX7cNOxqU3FVXwz0oG-66" target="0ddX7cNOxqU3FVXwz0oG-128">
          <mxGeometry relative="1" as="geometry" />
        </mxCell>
        <mxCell id="0ddX7cNOxqU3FVXwz0oG-141" style="edgeStyle=orthogonalEdgeStyle;rounded=0;orthogonalLoop=1;jettySize=auto;html=1;entryX=0.003;entryY=0.678;entryDx=0;entryDy=0;entryPerimeter=0;fontSize=10;" edge="1" parent="1" source="0ddX7cNOxqU3FVXwz0oG-66" target="0ddX7cNOxqU3FVXwz0oG-129">
          <mxGeometry relative="1" as="geometry" />
        </mxCell>
        <mxCell id="0ddX7cNOxqU3FVXwz0oG-66" value="Поле &quot;Email&quot;" style="rounded=1;whiteSpace=wrap;html=1;labelBackgroundColor=none;" vertex="1" parent="1">
          <mxGeometry x="730" y="880" width="170" height="20" as="geometry" />
        </mxCell>
        <mxCell id="0ddX7cNOxqU3FVXwz0oG-148" style="edgeStyle=orthogonalEdgeStyle;rounded=0;orthogonalLoop=1;jettySize=auto;html=1;entryX=0;entryY=0.544;entryDx=0;entryDy=0;entryPerimeter=0;fontSize=10;" edge="1" parent="1" source="0ddX7cNOxqU3FVXwz0oG-67" target="0ddX7cNOxqU3FVXwz0oG-146">
          <mxGeometry relative="1" as="geometry" />
        </mxCell>
        <mxCell id="0ddX7cNOxqU3FVXwz0oG-149" style="edgeStyle=orthogonalEdgeStyle;rounded=0;orthogonalLoop=1;jettySize=auto;html=1;entryX=0;entryY=0.611;entryDx=0;entryDy=0;entryPerimeter=0;fontSize=10;" edge="1" parent="1" source="0ddX7cNOxqU3FVXwz0oG-67" target="0ddX7cNOxqU3FVXwz0oG-147">
          <mxGeometry relative="1" as="geometry" />
        </mxCell>
        <mxCell id="0ddX7cNOxqU3FVXwz0oG-151" style="edgeStyle=orthogonalEdgeStyle;rounded=0;orthogonalLoop=1;jettySize=auto;html=1;entryX=0.003;entryY=0.522;entryDx=0;entryDy=0;entryPerimeter=0;fontSize=10;" edge="1" parent="1" source="0ddX7cNOxqU3FVXwz0oG-67" target="0ddX7cNOxqU3FVXwz0oG-150">
          <mxGeometry relative="1" as="geometry" />
        </mxCell>
        <mxCell id="0ddX7cNOxqU3FVXwz0oG-153" style="edgeStyle=orthogonalEdgeStyle;rounded=0;orthogonalLoop=1;jettySize=auto;html=1;entryX=0;entryY=0.589;entryDx=0;entryDy=0;entryPerimeter=0;fontSize=10;" edge="1" parent="1" source="0ddX7cNOxqU3FVXwz0oG-67" target="0ddX7cNOxqU3FVXwz0oG-152">
          <mxGeometry relative="1" as="geometry" />
        </mxCell>
        <mxCell id="0ddX7cNOxqU3FVXwz0oG-67" value="Поле номера телефона" style="rounded=1;whiteSpace=wrap;html=1;labelBackgroundColor=none;" vertex="1" parent="1">
          <mxGeometry x="730" y="1130" width="170" height="20" as="geometry" />
        </mxCell>
        <mxCell id="0ddX7cNOxqU3FVXwz0oG-73" value="&lt;font style=&quot;font-size: 10px;&quot;&gt;Буквы русского алфавита&lt;/font&gt;" style="text;html=1;align=center;verticalAlign=middle;resizable=0;points=[];autosize=1;strokeColor=none;fillColor=none;" vertex="1" parent="1">
          <mxGeometry x="960" y="300" width="150" height="30" as="geometry" />
        </mxCell>
        <mxCell id="0ddX7cNOxqU3FVXwz0oG-74" value="&lt;font style=&quot;font-size: 10px;&quot;&gt;Буквы английского алфавита&lt;/font&gt;" style="text;html=1;align=center;verticalAlign=middle;resizable=0;points=[];autosize=1;strokeColor=none;fillColor=none;" vertex="1" parent="1">
          <mxGeometry x="955" y="325" width="160" height="30" as="geometry" />
        </mxCell>
        <mxCell id="0ddX7cNOxqU3FVXwz0oG-82" style="edgeStyle=orthogonalEdgeStyle;rounded=0;orthogonalLoop=1;jettySize=auto;html=1;fontSize=10;" edge="1" parent="1" source="0ddX7cNOxqU3FVXwz0oG-77" target="0ddX7cNOxqU3FVXwz0oG-79">
          <mxGeometry relative="1" as="geometry" />
        </mxCell>
        <mxCell id="0ddX7cNOxqU3FVXwz0oG-83" style="edgeStyle=orthogonalEdgeStyle;rounded=0;orthogonalLoop=1;jettySize=auto;html=1;fontSize=10;" edge="1" parent="1" source="0ddX7cNOxqU3FVXwz0oG-77" target="0ddX7cNOxqU3FVXwz0oG-80">
          <mxGeometry relative="1" as="geometry" />
        </mxCell>
        <mxCell id="0ddX7cNOxqU3FVXwz0oG-84" style="edgeStyle=orthogonalEdgeStyle;rounded=0;orthogonalLoop=1;jettySize=auto;html=1;entryX=-0.001;entryY=0.514;entryDx=0;entryDy=0;entryPerimeter=0;fontSize=10;" edge="1" parent="1" source="0ddX7cNOxqU3FVXwz0oG-77" target="0ddX7cNOxqU3FVXwz0oG-81">
          <mxGeometry relative="1" as="geometry">
            <Array as="points">
              <mxPoint x="1100" y="380" />
              <mxPoint x="1100" y="385" />
            </Array>
          </mxGeometry>
        </mxCell>
        <mxCell id="0ddX7cNOxqU3FVXwz0oG-77" value="&lt;font style=&quot;font-size: 10px;&quot;&gt;Кол-во символов&lt;/font&gt;" style="text;html=1;align=center;verticalAlign=middle;resizable=0;points=[];autosize=1;strokeColor=none;fillColor=none;" vertex="1" parent="1">
          <mxGeometry x="960" y="350" width="100" height="30" as="geometry" />
        </mxCell>
        <mxCell id="0ddX7cNOxqU3FVXwz0oG-79" value="&lt;font style=&quot;font-size: 10px;&quot;&gt;меньше 2 символов&lt;/font&gt;" style="text;html=1;align=center;verticalAlign=middle;resizable=0;points=[];autosize=1;strokeColor=none;fillColor=none;" vertex="1" parent="1">
          <mxGeometry x="1130" y="340" width="120" height="30" as="geometry" />
        </mxCell>
        <mxCell id="0ddX7cNOxqU3FVXwz0oG-80" value="&lt;span style=&quot;font-size: 10px;&quot;&gt;не менее 2 и не более 25 символов&lt;/span&gt;" style="text;html=1;align=center;verticalAlign=middle;resizable=0;points=[];autosize=1;strokeColor=none;fillColor=none;" vertex="1" parent="1">
          <mxGeometry x="1100" y="355" width="190" height="30" as="geometry" />
        </mxCell>
        <mxCell id="0ddX7cNOxqU3FVXwz0oG-81" value="&lt;span style=&quot;font-size: 10px;&quot;&gt;более 25 символов&lt;/span&gt;" style="text;html=1;align=center;verticalAlign=middle;resizable=0;points=[];autosize=1;strokeColor=none;fillColor=none;" vertex="1" parent="1">
          <mxGeometry x="1140" y="370" width="110" height="30" as="geometry" />
        </mxCell>
        <mxCell id="0ddX7cNOxqU3FVXwz0oG-85" value="&lt;font style=&quot;font-size: 10px;&quot;&gt;Буквы русского алфавита&lt;/font&gt;" style="text;html=1;align=center;verticalAlign=middle;resizable=0;points=[];autosize=1;strokeColor=none;fillColor=none;" vertex="1" parent="1">
          <mxGeometry x="940" y="430" width="150" height="30" as="geometry" />
        </mxCell>
        <mxCell id="0ddX7cNOxqU3FVXwz0oG-86" value="&lt;font style=&quot;font-size: 10px;&quot;&gt;Буквы английского алфавита&lt;/font&gt;" style="text;html=1;align=center;verticalAlign=middle;resizable=0;points=[];autosize=1;strokeColor=none;fillColor=none;" vertex="1" parent="1">
          <mxGeometry x="940" y="460" width="160" height="30" as="geometry" />
        </mxCell>
        <mxCell id="0ddX7cNOxqU3FVXwz0oG-87" style="edgeStyle=orthogonalEdgeStyle;rounded=0;orthogonalLoop=1;jettySize=auto;html=1;fontSize=10;" edge="1" parent="1" target="0ddX7cNOxqU3FVXwz0oG-90">
          <mxGeometry relative="1" as="geometry">
            <mxPoint x="1050" y="510" as="sourcePoint" />
          </mxGeometry>
        </mxCell>
        <mxCell id="0ddX7cNOxqU3FVXwz0oG-88" style="edgeStyle=orthogonalEdgeStyle;rounded=0;orthogonalLoop=1;jettySize=auto;html=1;fontSize=10;" edge="1" parent="1" target="0ddX7cNOxqU3FVXwz0oG-91">
          <mxGeometry relative="1" as="geometry">
            <mxPoint x="1050" y="510" as="sourcePoint" />
          </mxGeometry>
        </mxCell>
        <mxCell id="0ddX7cNOxqU3FVXwz0oG-89" style="edgeStyle=orthogonalEdgeStyle;rounded=0;orthogonalLoop=1;jettySize=auto;html=1;entryX=-0.001;entryY=0.514;entryDx=0;entryDy=0;entryPerimeter=0;fontSize=10;" edge="1" parent="1" target="0ddX7cNOxqU3FVXwz0oG-92">
          <mxGeometry relative="1" as="geometry">
            <mxPoint x="1050" y="525" as="sourcePoint" />
            <Array as="points">
              <mxPoint x="1090" y="525" />
              <mxPoint x="1090" y="530" />
            </Array>
          </mxGeometry>
        </mxCell>
        <mxCell id="0ddX7cNOxqU3FVXwz0oG-90" value="&lt;font style=&quot;font-size: 10px;&quot;&gt;меньше 2 символов&lt;/font&gt;" style="text;html=1;align=center;verticalAlign=middle;resizable=0;points=[];autosize=1;strokeColor=none;fillColor=none;" vertex="1" parent="1">
          <mxGeometry x="1120" y="485" width="120" height="30" as="geometry" />
        </mxCell>
        <mxCell id="0ddX7cNOxqU3FVXwz0oG-91" value="&lt;span style=&quot;font-size: 10px;&quot;&gt;не менее 2 и не более 25 символов&lt;/span&gt;" style="text;html=1;align=center;verticalAlign=middle;resizable=0;points=[];autosize=1;strokeColor=none;fillColor=none;" vertex="1" parent="1">
          <mxGeometry x="1090" y="500" width="190" height="30" as="geometry" />
        </mxCell>
        <mxCell id="0ddX7cNOxqU3FVXwz0oG-92" value="&lt;span style=&quot;font-size: 10px;&quot;&gt;более 25 символов&lt;/span&gt;" style="text;html=1;align=center;verticalAlign=middle;resizable=0;points=[];autosize=1;strokeColor=none;fillColor=none;" vertex="1" parent="1">
          <mxGeometry x="1130" y="515" width="110" height="30" as="geometry" />
        </mxCell>
        <mxCell id="0ddX7cNOxqU3FVXwz0oG-93" value="&lt;font style=&quot;font-size: 10px;&quot;&gt;Кол-во символов&lt;/font&gt;" style="text;html=1;align=center;verticalAlign=middle;resizable=0;points=[];autosize=1;strokeColor=none;fillColor=none;" vertex="1" parent="1">
          <mxGeometry x="950" y="500" width="100" height="30" as="geometry" />
        </mxCell>
        <mxCell id="0ddX7cNOxqU3FVXwz0oG-95" value="" style="endArrow=classic;html=1;rounded=0;fontSize=10;" edge="1" parent="1" source="0ddX7cNOxqU3FVXwz0oG-79">
          <mxGeometry width="50" height="50" relative="1" as="geometry">
            <mxPoint x="1230" y="420" as="sourcePoint" />
            <mxPoint x="1320" y="355" as="targetPoint" />
            <Array as="points" />
          </mxGeometry>
        </mxCell>
        <mxCell id="0ddX7cNOxqU3FVXwz0oG-96" value="&lt;font style=&quot;font-size: 10px;&quot;&gt;Поле подсвечивается красным и появляется текст &quot;Некорректный ввод&quot;&lt;/font&gt;" style="text;html=1;align=center;verticalAlign=middle;resizable=0;points=[];autosize=1;strokeColor=none;fillColor=none;" vertex="1" parent="1">
          <mxGeometry x="1320" y="370" width="370" height="30" as="geometry" />
        </mxCell>
        <mxCell id="0ddX7cNOxqU3FVXwz0oG-97" value="" style="endArrow=classic;html=1;rounded=0;fontSize=10;" edge="1" parent="1">
          <mxGeometry width="50" height="50" relative="1" as="geometry">
            <mxPoint x="1250" y="385" as="sourcePoint" />
            <mxPoint x="1320" y="385" as="targetPoint" />
            <Array as="points" />
          </mxGeometry>
        </mxCell>
        <mxCell id="0ddX7cNOxqU3FVXwz0oG-99" value="" style="endArrow=classic;html=1;rounded=0;fontSize=10;" edge="1" parent="1">
          <mxGeometry width="50" height="50" relative="1" as="geometry">
            <mxPoint x="1250" y="500" as="sourcePoint" />
            <mxPoint x="1320" y="500" as="targetPoint" />
            <Array as="points" />
          </mxGeometry>
        </mxCell>
        <mxCell id="0ddX7cNOxqU3FVXwz0oG-101" value="" style="endArrow=classic;html=1;rounded=0;fontSize=10;" edge="1" parent="1">
          <mxGeometry width="50" height="50" relative="1" as="geometry">
            <mxPoint x="1250" y="535" as="sourcePoint" />
            <mxPoint x="1320" y="535" as="targetPoint" />
            <Array as="points" />
          </mxGeometry>
        </mxCell>
        <mxCell id="0ddX7cNOxqU3FVXwz0oG-105" value="&lt;font style=&quot;font-size: 10px;&quot;&gt;Поле подсвечивается красным и появляется текст &quot;Некорректный ввод&quot;&lt;/font&gt;" style="text;html=1;align=center;verticalAlign=middle;resizable=0;points=[];autosize=1;strokeColor=none;fillColor=none;" vertex="1" parent="1">
          <mxGeometry x="1320" y="340" width="370" height="30" as="geometry" />
        </mxCell>
        <mxCell id="0ddX7cNOxqU3FVXwz0oG-106" value="&lt;font style=&quot;font-size: 10px;&quot;&gt;Поле подсвечивается красным и появляется текст &quot;Некорректный ввод&quot;&lt;/font&gt;" style="text;html=1;align=center;verticalAlign=middle;resizable=0;points=[];autosize=1;strokeColor=none;fillColor=none;" vertex="1" parent="1">
          <mxGeometry x="1330" y="485" width="370" height="30" as="geometry" />
        </mxCell>
        <mxCell id="0ddX7cNOxqU3FVXwz0oG-107" value="&lt;font style=&quot;font-size: 10px;&quot;&gt;Поле подсвечивается красным и появляется текст &quot;Некорректный ввод&quot;&lt;/font&gt;" style="text;html=1;align=center;verticalAlign=middle;resizable=0;points=[];autosize=1;strokeColor=none;fillColor=none;" vertex="1" parent="1">
          <mxGeometry x="1330" y="520" width="370" height="30" as="geometry" />
        </mxCell>
        <mxCell id="0ddX7cNOxqU3FVXwz0oG-108" style="edgeStyle=orthogonalEdgeStyle;rounded=0;orthogonalLoop=1;jettySize=auto;html=1;fontSize=10;" edge="1" parent="1" target="0ddX7cNOxqU3FVXwz0oG-111">
          <mxGeometry relative="1" as="geometry">
            <mxPoint x="900" y="660.0476190476188" as="sourcePoint" />
            <Array as="points">
              <mxPoint x="920" y="660" />
              <mxPoint x="920" y="640" />
            </Array>
          </mxGeometry>
        </mxCell>
        <mxCell id="0ddX7cNOxqU3FVXwz0oG-109" style="edgeStyle=orthogonalEdgeStyle;rounded=0;orthogonalLoop=1;jettySize=auto;html=1;fontSize=10;" edge="1" parent="1" target="0ddX7cNOxqU3FVXwz0oG-112">
          <mxGeometry relative="1" as="geometry">
            <mxPoint x="900" y="660.0476190476188" as="sourcePoint" />
          </mxGeometry>
        </mxCell>
        <mxCell id="0ddX7cNOxqU3FVXwz0oG-110" style="edgeStyle=orthogonalEdgeStyle;rounded=0;orthogonalLoop=1;jettySize=auto;html=1;entryX=0.003;entryY=0.544;entryDx=0;entryDy=0;entryPerimeter=0;fontSize=10;" edge="1" parent="1" target="0ddX7cNOxqU3FVXwz0oG-119">
          <mxGeometry relative="1" as="geometry">
            <mxPoint x="900" y="660.0476190476188" as="sourcePoint" />
            <Array as="points">
              <mxPoint x="920" y="660" />
              <mxPoint x="920" y="706" />
            </Array>
          </mxGeometry>
        </mxCell>
        <mxCell id="0ddX7cNOxqU3FVXwz0oG-111" value="&lt;font style=&quot;font-size: 10px;&quot;&gt;Буквы русского алфавита&lt;/font&gt;" style="text;html=1;align=center;verticalAlign=middle;resizable=0;points=[];autosize=1;strokeColor=none;fillColor=none;" vertex="1" parent="1">
          <mxGeometry x="940" y="620" width="150" height="30" as="geometry" />
        </mxCell>
        <mxCell id="0ddX7cNOxqU3FVXwz0oG-112" value="&lt;font style=&quot;font-size: 10px;&quot;&gt;Буквы английского алфавита&lt;/font&gt;" style="text;html=1;align=center;verticalAlign=middle;resizable=0;points=[];autosize=1;strokeColor=none;fillColor=none;" vertex="1" parent="1">
          <mxGeometry x="940" y="650" width="160" height="30" as="geometry" />
        </mxCell>
        <mxCell id="0ddX7cNOxqU3FVXwz0oG-113" style="edgeStyle=orthogonalEdgeStyle;rounded=0;orthogonalLoop=1;jettySize=auto;html=1;fontSize=10;" edge="1" parent="1" target="0ddX7cNOxqU3FVXwz0oG-116">
          <mxGeometry relative="1" as="geometry">
            <mxPoint x="1050" y="700" as="sourcePoint" />
          </mxGeometry>
        </mxCell>
        <mxCell id="0ddX7cNOxqU3FVXwz0oG-114" style="edgeStyle=orthogonalEdgeStyle;rounded=0;orthogonalLoop=1;jettySize=auto;html=1;fontSize=10;" edge="1" parent="1" target="0ddX7cNOxqU3FVXwz0oG-117">
          <mxGeometry relative="1" as="geometry">
            <mxPoint x="1050" y="700" as="sourcePoint" />
          </mxGeometry>
        </mxCell>
        <mxCell id="0ddX7cNOxqU3FVXwz0oG-115" style="edgeStyle=orthogonalEdgeStyle;rounded=0;orthogonalLoop=1;jettySize=auto;html=1;entryX=-0.001;entryY=0.514;entryDx=0;entryDy=0;entryPerimeter=0;fontSize=10;" edge="1" parent="1" target="0ddX7cNOxqU3FVXwz0oG-118">
          <mxGeometry relative="1" as="geometry">
            <mxPoint x="1050" y="715" as="sourcePoint" />
            <Array as="points">
              <mxPoint x="1090" y="715" />
              <mxPoint x="1090" y="720" />
            </Array>
          </mxGeometry>
        </mxCell>
        <mxCell id="0ddX7cNOxqU3FVXwz0oG-116" value="&lt;font style=&quot;font-size: 10px;&quot;&gt;меньше 2 символов&lt;/font&gt;" style="text;html=1;align=center;verticalAlign=middle;resizable=0;points=[];autosize=1;strokeColor=none;fillColor=none;" vertex="1" parent="1">
          <mxGeometry x="1120" y="675" width="120" height="30" as="geometry" />
        </mxCell>
        <mxCell id="0ddX7cNOxqU3FVXwz0oG-117" value="&lt;span style=&quot;font-size: 10px;&quot;&gt;не менее 2 и не более 25 символов&lt;/span&gt;" style="text;html=1;align=center;verticalAlign=middle;resizable=0;points=[];autosize=1;strokeColor=none;fillColor=none;" vertex="1" parent="1">
          <mxGeometry x="1090" y="690" width="190" height="30" as="geometry" />
        </mxCell>
        <mxCell id="0ddX7cNOxqU3FVXwz0oG-118" value="&lt;span style=&quot;font-size: 10px;&quot;&gt;более 25 символов&lt;/span&gt;" style="text;html=1;align=center;verticalAlign=middle;resizable=0;points=[];autosize=1;strokeColor=none;fillColor=none;" vertex="1" parent="1">
          <mxGeometry x="1130" y="705" width="110" height="30" as="geometry" />
        </mxCell>
        <mxCell id="0ddX7cNOxqU3FVXwz0oG-119" value="&lt;font style=&quot;font-size: 10px;&quot;&gt;Кол-во символов&lt;/font&gt;" style="text;html=1;align=center;verticalAlign=middle;resizable=0;points=[];autosize=1;strokeColor=none;fillColor=none;" vertex="1" parent="1">
          <mxGeometry x="950" y="690" width="100" height="30" as="geometry" />
        </mxCell>
        <mxCell id="0ddX7cNOxqU3FVXwz0oG-120" value="" style="endArrow=classic;html=1;rounded=0;fontSize=10;" edge="1" parent="1">
          <mxGeometry width="50" height="50" relative="1" as="geometry">
            <mxPoint x="1250" y="690" as="sourcePoint" />
            <mxPoint x="1320" y="690" as="targetPoint" />
            <Array as="points" />
          </mxGeometry>
        </mxCell>
        <mxCell id="0ddX7cNOxqU3FVXwz0oG-121" value="" style="endArrow=classic;html=1;rounded=0;fontSize=10;" edge="1" parent="1">
          <mxGeometry width="50" height="50" relative="1" as="geometry">
            <mxPoint x="1250" y="725" as="sourcePoint" />
            <mxPoint x="1320" y="725" as="targetPoint" />
            <Array as="points" />
          </mxGeometry>
        </mxCell>
        <mxCell id="0ddX7cNOxqU3FVXwz0oG-122" value="&lt;font style=&quot;font-size: 10px;&quot;&gt;Поле подсвечивается красным и появляется текст &quot;Некорректный ввод&quot;&lt;/font&gt;" style="text;html=1;align=center;verticalAlign=middle;resizable=0;points=[];autosize=1;strokeColor=none;fillColor=none;" vertex="1" parent="1">
          <mxGeometry x="1330" y="675" width="370" height="30" as="geometry" />
        </mxCell>
        <mxCell id="0ddX7cNOxqU3FVXwz0oG-123" value="&lt;font style=&quot;font-size: 10px;&quot;&gt;Поле подсвечивается красным и появляется текст &quot;Некорректный ввод&quot;&lt;/font&gt;" style="text;html=1;align=center;verticalAlign=middle;resizable=0;points=[];autosize=1;strokeColor=none;fillColor=none;" vertex="1" parent="1">
          <mxGeometry x="1330" y="710" width="370" height="30" as="geometry" />
        </mxCell>
        <mxCell id="0ddX7cNOxqU3FVXwz0oG-124" value="&lt;span style=&quot;font-size: 10px;&quot;&gt;Буквы английского алфавита&lt;/span&gt;" style="text;html=1;align=center;verticalAlign=middle;resizable=0;points=[];autosize=1;strokeColor=none;fillColor=none;" vertex="1" parent="1">
          <mxGeometry x="960" y="840" width="160" height="30" as="geometry" />
        </mxCell>
        <mxCell id="0ddX7cNOxqU3FVXwz0oG-125" value="&lt;span style=&quot;font-size: 10px;&quot;&gt;Цифры&lt;/span&gt;" style="text;html=1;align=center;verticalAlign=middle;resizable=0;points=[];autosize=1;strokeColor=none;fillColor=none;" vertex="1" parent="1">
          <mxGeometry x="960" y="870" width="60" height="30" as="geometry" />
        </mxCell>
        <mxCell id="0ddX7cNOxqU3FVXwz0oG-126" value="&lt;span style=&quot;font-size: 10px;&quot;&gt;Тире&lt;/span&gt;" style="text;html=1;align=center;verticalAlign=middle;resizable=0;points=[];autosize=1;strokeColor=none;fillColor=none;" vertex="1" parent="1">
          <mxGeometry x="960" y="900" width="50" height="30" as="geometry" />
        </mxCell>
        <mxCell id="0ddX7cNOxqU3FVXwz0oG-127" value="&lt;span style=&quot;font-size: 10px;&quot;&gt;Точка&lt;/span&gt;" style="text;html=1;align=center;verticalAlign=middle;resizable=0;points=[];autosize=1;strokeColor=none;fillColor=none;" vertex="1" parent="1">
          <mxGeometry x="960" y="930" width="50" height="30" as="geometry" />
        </mxCell>
        <mxCell id="0ddX7cNOxqU3FVXwz0oG-128" value="&lt;span style=&quot;font-size: 10px;&quot;&gt;Символ @&lt;/span&gt;" style="text;html=1;align=center;verticalAlign=middle;resizable=0;points=[];autosize=1;strokeColor=none;fillColor=none;" vertex="1" parent="1">
          <mxGeometry x="960" y="960" width="70" height="30" as="geometry" />
        </mxCell>
        <mxCell id="0ddX7cNOxqU3FVXwz0oG-133" style="edgeStyle=orthogonalEdgeStyle;rounded=0;orthogonalLoop=1;jettySize=auto;html=1;fontSize=10;" edge="1" parent="1" source="0ddX7cNOxqU3FVXwz0oG-129" target="0ddX7cNOxqU3FVXwz0oG-130">
          <mxGeometry relative="1" as="geometry" />
        </mxCell>
        <mxCell id="0ddX7cNOxqU3FVXwz0oG-134" style="edgeStyle=orthogonalEdgeStyle;rounded=0;orthogonalLoop=1;jettySize=auto;html=1;fontSize=10;" edge="1" parent="1" source="0ddX7cNOxqU3FVXwz0oG-129" target="0ddX7cNOxqU3FVXwz0oG-131">
          <mxGeometry relative="1" as="geometry" />
        </mxCell>
        <mxCell id="0ddX7cNOxqU3FVXwz0oG-135" style="edgeStyle=orthogonalEdgeStyle;rounded=0;orthogonalLoop=1;jettySize=auto;html=1;entryX=0;entryY=0.567;entryDx=0;entryDy=0;entryPerimeter=0;fontSize=10;" edge="1" parent="1" source="0ddX7cNOxqU3FVXwz0oG-129" target="0ddX7cNOxqU3FVXwz0oG-132">
          <mxGeometry relative="1" as="geometry" />
        </mxCell>
        <mxCell id="0ddX7cNOxqU3FVXwz0oG-129" value="&lt;span style=&quot;font-size: 10px;&quot;&gt;Кол-во символов&lt;/span&gt;" style="text;html=1;align=center;verticalAlign=middle;resizable=0;points=[];autosize=1;strokeColor=none;fillColor=none;" vertex="1" parent="1">
          <mxGeometry x="960" y="990" width="100" height="30" as="geometry" />
        </mxCell>
        <mxCell id="0ddX7cNOxqU3FVXwz0oG-130" value="меньше&amp;nbsp; 5 символов" style="text;html=1;align=center;verticalAlign=middle;resizable=0;points=[];autosize=1;strokeColor=none;fillColor=none;fontSize=10;" vertex="1" parent="1">
          <mxGeometry x="1100" y="960" width="120" height="30" as="geometry" />
        </mxCell>
        <mxCell id="0ddX7cNOxqU3FVXwz0oG-131" value="не менее 5 и не более 50 символов" style="text;html=1;align=center;verticalAlign=middle;resizable=0;points=[];autosize=1;strokeColor=none;fillColor=none;fontSize=10;" vertex="1" parent="1">
          <mxGeometry x="1100" y="990" width="190" height="30" as="geometry" />
        </mxCell>
        <mxCell id="0ddX7cNOxqU3FVXwz0oG-132" value="более 50 символов" style="text;html=1;align=center;verticalAlign=middle;resizable=0;points=[];autosize=1;strokeColor=none;fillColor=none;fontSize=10;" vertex="1" parent="1">
          <mxGeometry x="1105" y="1020" width="110" height="30" as="geometry" />
        </mxCell>
        <mxCell id="0ddX7cNOxqU3FVXwz0oG-142" value="" style="endArrow=classic;html=1;rounded=0;fontSize=10;" edge="1" parent="1">
          <mxGeometry width="50" height="50" relative="1" as="geometry">
            <mxPoint x="1240" y="975" as="sourcePoint" />
            <mxPoint x="1310" y="975" as="targetPoint" />
            <Array as="points" />
          </mxGeometry>
        </mxCell>
        <mxCell id="0ddX7cNOxqU3FVXwz0oG-143" value="&lt;font style=&quot;font-size: 10px;&quot;&gt;Поле подсвечивается красным и появляется текст &quot;Некорректный ввод&quot;&lt;/font&gt;" style="text;html=1;align=center;verticalAlign=middle;resizable=0;points=[];autosize=1;strokeColor=none;fillColor=none;" vertex="1" parent="1">
          <mxGeometry x="1320" y="960" width="370" height="30" as="geometry" />
        </mxCell>
        <mxCell id="0ddX7cNOxqU3FVXwz0oG-144" value="" style="endArrow=classic;html=1;rounded=0;fontSize=10;" edge="1" parent="1">
          <mxGeometry width="50" height="50" relative="1" as="geometry">
            <mxPoint x="1240" y="1035" as="sourcePoint" />
            <mxPoint x="1310" y="1035" as="targetPoint" />
            <Array as="points" />
          </mxGeometry>
        </mxCell>
        <mxCell id="0ddX7cNOxqU3FVXwz0oG-145" value="&lt;font style=&quot;font-size: 10px;&quot;&gt;Поле подсвечивается красным и появляется текст &quot;Некорректный ввод&quot;&lt;/font&gt;" style="text;html=1;align=center;verticalAlign=middle;resizable=0;points=[];autosize=1;strokeColor=none;fillColor=none;" vertex="1" parent="1">
          <mxGeometry x="1320" y="1020" width="370" height="30" as="geometry" />
        </mxCell>
        <mxCell id="0ddX7cNOxqU3FVXwz0oG-146" value="&lt;span style=&quot;font-size: 10px;&quot;&gt;Знак &quot;+&quot;&lt;/span&gt;" style="text;html=1;align=center;verticalAlign=middle;resizable=0;points=[];autosize=1;strokeColor=none;fillColor=none;" vertex="1" parent="1">
          <mxGeometry x="975" y="1090" width="60" height="30" as="geometry" />
        </mxCell>
        <mxCell id="0ddX7cNOxqU3FVXwz0oG-147" value="&lt;span style=&quot;font-size: 10px;&quot;&gt;Цифры&lt;/span&gt;" style="text;html=1;align=center;verticalAlign=middle;resizable=0;points=[];autosize=1;strokeColor=none;fillColor=none;" vertex="1" parent="1">
          <mxGeometry x="975" y="1150" width="60" height="30" as="geometry" />
        </mxCell>
        <mxCell id="0ddX7cNOxqU3FVXwz0oG-150" value="&lt;span style=&quot;font-size: 10px;&quot;&gt;Ввод начинается с +7&lt;/span&gt;" style="text;html=1;align=center;verticalAlign=middle;resizable=0;points=[];autosize=1;strokeColor=none;fillColor=none;" vertex="1" parent="1">
          <mxGeometry x="970" y="1210" width="130" height="30" as="geometry" />
        </mxCell>
        <mxCell id="0ddX7cNOxqU3FVXwz0oG-157" style="edgeStyle=orthogonalEdgeStyle;rounded=0;orthogonalLoop=1;jettySize=auto;html=1;entryX=0.011;entryY=0.511;entryDx=0;entryDy=0;entryPerimeter=0;fontSize=10;" edge="1" parent="1" source="0ddX7cNOxqU3FVXwz0oG-152" target="0ddX7cNOxqU3FVXwz0oG-154">
          <mxGeometry relative="1" as="geometry">
            <Array as="points">
              <mxPoint x="1080" y="1275" />
              <mxPoint x="1080" y="1260" />
            </Array>
          </mxGeometry>
        </mxCell>
        <mxCell id="0ddX7cNOxqU3FVXwz0oG-158" style="edgeStyle=orthogonalEdgeStyle;rounded=0;orthogonalLoop=1;jettySize=auto;html=1;fontSize=10;" edge="1" parent="1" source="0ddX7cNOxqU3FVXwz0oG-152" target="0ddX7cNOxqU3FVXwz0oG-155">
          <mxGeometry relative="1" as="geometry" />
        </mxCell>
        <mxCell id="0ddX7cNOxqU3FVXwz0oG-159" style="edgeStyle=orthogonalEdgeStyle;rounded=0;orthogonalLoop=1;jettySize=auto;html=1;entryX=-0.003;entryY=0.744;entryDx=0;entryDy=0;entryPerimeter=0;fontSize=10;" edge="1" parent="1" source="0ddX7cNOxqU3FVXwz0oG-152" target="0ddX7cNOxqU3FVXwz0oG-156">
          <mxGeometry relative="1" as="geometry" />
        </mxCell>
        <mxCell id="0ddX7cNOxqU3FVXwz0oG-152" value="&lt;span style=&quot;font-size: 10px;&quot;&gt;Кол-во символов&lt;/span&gt;" style="text;html=1;align=center;verticalAlign=middle;resizable=0;points=[];autosize=1;strokeColor=none;fillColor=none;" vertex="1" parent="1">
          <mxGeometry x="975" y="1260" width="100" height="30" as="geometry" />
        </mxCell>
        <mxCell id="0ddX7cNOxqU3FVXwz0oG-154" value="меньше 10 символов" style="text;html=1;align=center;verticalAlign=middle;resizable=0;points=[];autosize=1;strokeColor=none;fillColor=none;fontSize=10;" vertex="1" parent="1">
          <mxGeometry x="1095" y="1245" width="120" height="30" as="geometry" />
        </mxCell>
        <mxCell id="0ddX7cNOxqU3FVXwz0oG-155" value="не менее 10 и не более 12 символов" style="text;html=1;align=center;verticalAlign=middle;resizable=0;points=[];autosize=1;strokeColor=none;fillColor=none;fontSize=10;" vertex="1" parent="1">
          <mxGeometry x="1105" y="1275" width="200" height="30" as="geometry" />
        </mxCell>
        <mxCell id="0ddX7cNOxqU3FVXwz0oG-156" value="Более 12 символов" style="text;html=1;align=center;verticalAlign=middle;resizable=0;points=[];autosize=1;strokeColor=none;fillColor=none;fontSize=10;" vertex="1" parent="1">
          <mxGeometry x="1100" y="1320" width="110" height="30" as="geometry" />
        </mxCell>
        <mxCell id="0ddX7cNOxqU3FVXwz0oG-160" value="Кнопка &quot;Язык&quot;" style="rounded=1;whiteSpace=wrap;html=1;labelBackgroundColor=none;" vertex="1" parent="1">
          <mxGeometry x="560" y="1420" width="130" height="30" as="geometry" />
        </mxCell>
        <mxCell id="0ddX7cNOxqU3FVXwz0oG-161" value="Кнопка &quot;Обратная связь&quot;" style="rounded=1;whiteSpace=wrap;html=1;labelBackgroundColor=none;" vertex="1" parent="1">
          <mxGeometry x="560" y="1490" width="130" height="30" as="geometry" />
        </mxCell>
        <mxCell id="0ddX7cNOxqU3FVXwz0oG-162" value="Кнопка &quot;Пользовательское соглашение&quot;" style="rounded=1;whiteSpace=wrap;html=1;labelBackgroundColor=none;" vertex="1" parent="1">
          <mxGeometry x="555" y="1560" width="185" height="30" as="geometry" />
        </mxCell>
        <mxCell id="0ddX7cNOxqU3FVXwz0oG-163" value="Кнопка &quot;Яндекс.Движ&quot;" style="rounded=1;whiteSpace=wrap;html=1;labelBackgroundColor=none;" vertex="1" parent="1">
          <mxGeometry x="555" y="1630" width="185" height="30" as="geometry" />
        </mxCell>
        <mxCell id="0ddX7cNOxqU3FVXwz0oG-169" value="Значение таймера меняются каждую секунду" style="text;html=1;align=center;verticalAlign=middle;resizable=0;points=[];autosize=1;strokeColor=none;fillColor=none;fontSize=10;" vertex="1" parent="1">
          <mxGeometry x="895" y="60" width="240" height="30" as="geometry" />
        </mxCell>
      </root>
    </mxGraphModel>
  </diagram>
</mxfile>
